<?xml version="1.0" standalone="no"?>
<!DOCTYPE svg PUBLIC "-//W3C//DTD SVG 20010904//EN"
 "http://www.w3.org/TR/2001/REC-SVG-20010904/DTD/svg10.dtd">
<svg version="1.0" xmlns="http://www.w3.org/2000/svg"
 width="700.000000pt" height="700.000000pt" viewBox="0 0 700.000000 700.000000"
 preserveAspectRatio="xMidYMid meet">
<metadata>
Created by potrace 1.14, written by Peter Selinger 2001-2017
</metadata>
<g transform="translate(0.000000,700.000000) scale(0.100000,-0.100000)"
fill="#000000" stroke="none">
<path d="M3309 6787 c-100 -17 -244 -60 -264 -78 -5 -5 -14 -9 -21 -9 -7 0
-45 -19 -86 -41 -304 -173 -537 -476 -602 -785 -21 -100 -12 -277 21 -428 8
-37 16 -73 17 -80 8 -35 23 -87 68 -231 103 -330 109 -355 111 -450 4 -232
-54 -383 -318 -825 -182 -305 -253 -450 -313 -640 -37 -118 -69 -301 -71 -412
-1 -35 -3 -37 -43 -43 -68 -12 -258 -75 -318 -106 -65 -34 -91 -54 -115 -91
-16 -26 -16 -33 0 -130 10 -57 19 -112 21 -123 2 -11 13 -74 25 -140 26 -157
23 -140 53 -300 158 -836 286 -1307 378 -1391 92 -84 306 -155 633 -208 83
-14 179 -28 215 -31 36 -4 72 -9 81 -10 9 -2 56 -6 105 -10 49 -4 103 -9 119
-11 184 -23 769 -22 995 1 25 3 77 7 115 10 39 3 84 7 100 10 17 2 59 7 95 10
36 4 72 9 82 10 9 2 38 7 65 11 26 3 57 8 68 10 11 3 36 7 55 10 239 37 489
123 563 192 60 57 126 237 207 567 44 178 73 309 86 385 3 14 7 33 10 42 3 9
7 27 9 40 3 13 16 79 29 148 28 142 54 283 61 320 5 32 24 139 29 165 2 11 7
40 11 65 11 66 12 74 35 203 23 126 22 141 -13 179 -19 22 -93 72 -107 73 -3
1 -14 6 -25 12 -25 13 -125 48 -185 64 -51 13 -52 13 -102 24 -29 5 -38 12
-39 29 -8 174 -30 300 -75 441 -57 176 -119 304 -298 605 -176 297 -236 412
-273 525 -41 120 -55 194 -58 289 -2 89 8 140 60 306 68 218 122 400 129 438
3 15 12 65 21 112 22 113 26 285 9 368 -64 309 -319 633 -624 791 -80 42 -190
87 -232 95 -13 2 -43 9 -68 15 -134 30 -290 33 -431 8z"/>
</g>
</svg>
